<svg width="31" height="18" viewBox="0 0 31 18" fill="none" xmlns="http://www.w3.org/2000/svg">
<path d="M12.6851 14.851L12.639 13.341L12.509 12.99L10.832 12.455L9.89105 12.267L9.79102 12.338H9.65002L5.78204 11.681L4.85004 10.237L4.59106 9.965L3.32806 9.31299L1.58801 9.06198L1.50403 9.668L0.237061 7.79401L1.03204 7.28799L0.112061 6.17099L0.96106 5.37601L1.46106 5.04099L5.05304 4.125L6.59204 4.13699L6.83002 4.246L7.13501 4.47998L8.52802 4.789L9.13904 4.85199L11.1801 4.668L11.4011 4.55499L11.5681 4.367L12.095 1.91199L12.195 1.97501H12.475L13.6671 1.41L13.985 1.33499L14.4951 0.949982L14.968 0.431L15.257 0.402008L15.32 0.47699L15.872 0.622986L16.278 0.906982L16.65 0.928009L16.981 1.095L17.3411 1.05701L17.6671 1.12799L17.9431 1.26199L18.0521 1.75101L18.01 2.02298L17.6671 2.659V2.75101L17.7421 2.84299L17.8051 2.83499L17.997 2.535L18.097 2.51401L18.197 2.50198L18.397 2.60199L18.5731 2.76498L19.1251 3.70999L19.368 3.99899L19.452 4.83499L19.774 5.065L20.274 5.211L20.83 5.483L21.4871 5.72501L21.717 5.64099L22.478 5.76199L22.871 5.595L23.256 5.51599L23.54 5.604L24.4641 5.37L24.764 5.37799L25.1071 5.56601L25.743 6.26599L25.902 6.70499L25.973 6.76801L26.249 6.83499L26.462 6.81799L26.734 6.71799L26.814 6.59299L27.082 6.45499L27.249 6.255L27.491 6.24701L27.637 6.159L27.574 5.93298L27.332 5.76599L27.1851 5.561L27.3651 4.96698L27.465 4.867H27.645L28.067 5.478L28.4431 5.56198L28.915 5.88L29.3151 5.66299L29.942 5.69199L30.122 5.85098L30.222 6.25699L30.0421 6.98499L29.8621 7.23999L29.674 7.37L28.4741 7.87601L27.78 7.97598L27.5161 8.34L27.0311 8.67499L26.445 9.00101L26.106 9.07199L26.085 9.172L25.721 9.25598L25.161 9.565L24.743 9.965L24.0991 10.174L23.626 10.111L23.296 10.157L23.166 10.308L23.145 10.442L23.204 10.626L23.363 10.818L23.376 10.96L23.066 11.215L23.024 11.391L23.0991 12.537L23.07 12.984L22.798 13.072L22.58 12.946L22.1801 12.536L21.553 12.394L21.419 12.549L21.398 12.867L21.0341 13.13L20.975 13.23L20.887 13.815L20.645 14.263L20.3651 14.33L20.189 14.313L19.608 13.844L18.993 13.815L18.704 13.656L18.3231 13.292L18.11 13.217L17.826 13.338L17.738 13.321L17.165 12.621L16.9351 12.203L16.3541 11.714L16.187 11.634L15.777 11.814H15.317L15.15 12.04L15.213 12.157L15.681 12.316L15.8151 12.446L16.007 12.877L16.446 13.011L16.618 13.245L16.601 13.475L16.455 13.642L16.024 13.684L15.911 13.763L15.84 13.976L15.899 14.164L16.351 14.118L16.46 14.273L16.5601 14.888L16.765 15.11L16.8651 15.424L16.3881 16.541L16.5051 16.888L16.476 17.156L16.405 17.223L16.28 17.248L15.661 17.089L15.473 16.976L14.825 16.307L14.553 16.115L14.432 16.073L14.097 16.199L13.963 16.111L13.754 15.811L13.6331 15.723H13.257L13.144 15.677L13.069 15.51L13.207 15.037L13.182 14.937L12.994 14.824L12.6851 14.851Z" fill="#717171"/>
</svg>
