<svg width="63" height="64" viewBox="0 0 63 64" fill="none" xmlns="http://www.w3.org/2000/svg">
<path d="M57.066 51.184L55.489 52.684L54.089 53.612L53.851 53.658L52.011 55.628L51.865 56.059L51.928 56.419L52.228 56.919L52.575 57.287L52.918 57.776L53.018 57.989L52.901 58.244L45.323 61.021L42.977 63.626L42.086 62.664L41.915 62.651L41.422 62.776L40.544 63.282L40.126 63.391L39.687 63.399L39.11 63.324L38.754 63.148L37.52 62.132L36.32 61.296L33.48 59.113L32.719 58.624L30.762 57.185L30.214 56.646L29.733 56.065L29.612 55.802L29.441 55.647L29.115 55.133L27.622 53.686L26.777 52.786L25.117 51.611L23.285 50.511L21.424 49.194L19.651 48.031L15.36 44.978L12.449 42.983L6.45599 38.583L5.96198 38.123L5.58197 37.584L5.51498 37.362L5.43097 36.986L5.45599 36.756L5.33499 36.463L5.28098 35.731L4.69098 34.865L4.69897 34.593L4.98798 34.093L5.02097 32.993L4.86197 32.571L4.80298 32.057L4.55597 31.204L4.53098 30.727L4.43097 30.405L4.44797 30.154L4.59897 29.773L4.58597 29.351L4.27197 28.791L3.78699 28.352L3.48697 27.909L3.46198 27.696L3.67099 27.052L3.79199 26.437L3.77499 26.307L3.22299 26.09L2.67099 25.739L2.11899 25.133L1.58798 24.895L1.03598 24.531L0.868988 24.297L3.49496 21.114L5.41498 18.969L5.74496 17.38L5.75699 16.736L5.47299 16.255L3.00098 13.461L1.64597 12.068L6.22098 9.952L0.455994 1.939L0.689972 1.82199L2.22498 1.43698L7.89197 0.0950012L8.33099 0.0619812L9.73099 2.862L10.312 3.72299L11.212 4.69299L12.212 5.341L13.692 6.13599L14.349 6.797L15.219 8.616L15.804 10.77L16.042 11.351L16.41 11.313L16.598 11.158L17.451 11.137L18.773 11.518L21.023 12.484L24.566 14.408L28.677 16.792L29.564 17.492L29.798 17.931L29.94 18.554L29.74 19.487L31.162 19.449L32.262 19.349L32.492 19.27L34.742 14.17L35.177 13.714L36.093 13.225L36.461 13.288L37.161 14.095L37.203 17.277L43.974 18.067L44.053 17.867L44.396 15.989L44.634 15.91L46.734 15.667L48.319 15.642L49.268 15.483L49.741 14.362L50.041 13.484L50.229 13.405L50.635 13.497L50.965 14.681L51.86 18.913L52.337 19.373L52.672 19.549L53.103 19.691L56.712 20.191L59.192 20.454L62.525 20.931L61.94 24.804L60.271 25.979L60.2 26.41L59.594 28.137L58.194 29.868L57.926 30.123L57.533 30.282L55.923 30.182L54.71 29.956L53.869 29.542L53.526 29.212L52.69 28.668L51.829 28.618L51.365 28.818L51.214 29.077L51.365 30.465L51.177 32.288L50.638 34.676L49.58 36.676L48.689 37.709L46.849 38.826L46.477 38.964L45.883 40.102L47.669 42.523L48.169 43.004L51.122 44.121L51.574 44.146L52.912 43.82L54.965 45.363L56.801 49.29L56.952 49.771L57.066 51.184Z" fill="#717171"/>
</svg>
