<svg width="37" height="17" viewBox="0 0 37 17" fill="none" xmlns="http://www.w3.org/2000/svg">
<path d="M4.66797 12.434L4.70996 12.158L4.60999 11.928L4.29999 11.652L3.08295 11.104L2.401 10.966L1.98297 10.799H1.849L1.47198 10.979L1.29797 10.965L1.10596 10.877L0.967957 10.722L0.776001 10.258L0.654968 10.128L0.537964 10.086L0.474976 9.77701L0.0939941 9.03702L0.0689697 8.78201L0.122986 8.69803L0.461975 8.60602L0.879944 8.26703L1.37994 8.17502L1.83997 7.93701L2.69696 7.63702H3.03094L3.23096 7.466L3.28094 7.12701L3.46497 6.94302L3.52399 6.57101L3.60297 6.40402L3.76996 6.31201L4.01697 6.27902L4.33899 6.30801L4.539 6.15802L4.83899 6.15002L5.01898 6.08301L5.383 5.61902L5.84698 4.69101L5.99695 4.53201L6.26898 4.457L6.55298 4.15201L6.76599 4.08102L6.82898 3.96402L7 3.931L7.17096 3.72202L7.57697 3.63L7.74396 3.74701L7.87799 3.76001L7.89899 3.48401L7.82397 3.07001L7.95398 2.97L8.07098 3.07001L8.34698 3.05301L8.53094 2.81003L8.65594 2.39203L8.89899 2.17001L8.92395 2.061L9.06598 2.02301L9.17499 1.914L11.212 1.39102L12.621 1.13602L15.448 1.09402V1.186L15.293 1.40302L14.724 2.09702L15.071 2.92102L15.853 3.69901L18.191 4.841L18.358 4.87402L18.672 4.69803L19.935 3.50601L20.253 3.09201L20.562 2.48602L21.081 2.151L22.8 1.21802L24.239 0.787018L25.506 2.66101L25.589 2.05502L27.329 2.306L28.592 2.95801L28.851 3.23001L29.788 4.677L33.6559 5.33401H33.7939L33.894 5.263L34.835 5.45102L36.512 5.98602L36.642 6.33701L36.688 7.84702L36.483 7.86401L36.0359 7.755L35.873 7.78802L35.66 8.36502L35.534 8.57401L35.271 8.82501L35.078 8.92502L34.923 8.95401L34.676 8.87003L34.304 8.62302L34.112 9.05801L34.3 9.77301L34.2419 9.91501L33.974 10.215L33.9449 10.453L33.824 10.62L33.251 10.791L32.816 11.351L32.603 11.51L32.2679 11.983L31.7679 12.2L31.379 12.56L31.329 12.669L31.417 12.878L31.827 12.978L32.237 13.35L32.2079 13.55L31.744 13.981L31.552 14.433L31.431 14.567L31.155 14.705L30.895 14.697L30.364 14.312L29.519 14.112L29.319 14.275L29.265 14.475L29.2859 14.588L29.595 15.061L29.603 15.283L29.289 15.492L29.063 15.479L28.022 16.144L27.47 16.32L27.085 16.596L26.939 16.621L26.839 16.563L26.647 16.208L26.467 15.995L26.3669 15.966L26.216 15.799L26.153 15.648L26.224 14.853L26.145 14.514L25.861 14.133L25.6429 13.983L25.321 13.95L24.8069 14L24.761 14.351L24.861 14.951L24.7729 15.351L24.806 15.585L24.756 15.669L24.6349 15.657L24.296 15.257H23.878L23.6479 15.336L23.263 15.094L22.5229 14.764L22.431 14.538L22.511 13.973L22.4109 13.756L21.8669 13.743L21.223 13.576L20.96 13.367L20.504 12.853L20.332 12.74L20.132 12.677L19.923 12.769L19.664 12.794L19.597 12.664L19.6349 12.501L19.501 12.401L18.861 12.669L18.547 12.711L18.434 12.669L18.371 12.556L18.363 12.138L17.719 12.184L17.296 12.042L16.878 12.004L16.5309 12.05L15.954 12.242L15.5439 12.234L15.289 12.322L14.218 13.066L13.403 13.212L12.537 13.588L12.349 13.709L12.29 13.822L12.42 14.207L12.374 14.613L11.374 14.642L10.558 14.789L10.4449 14.751L9.73395 15.278L8.70099 15.738L8.03998 15.876L7.45496 15.926L6.146 16.215L5.79895 16.073L5.30499 15.173L5.17096 14.805L4.87097 14.642L4.64899 14.249L4.703 14.203L4.73199 13.668L4.88696 13.254L4.65698 12.522L4.66797 12.434Z" fill="#717171"/>
</svg>
