<svg width="47" height="46" viewBox="0 0 47 46" fill="none" xmlns="http://www.w3.org/2000/svg">
<path d="M37.717 42.558L37.517 42.658L37.429 43.302L37.295 43.729L36.952 44.034L36.5 43.875L36.019 43.984L34.781 43.784L34.003 44.123L33.84 44.073L33.51 43.755L33.297 43.655L32.703 43.521L31.963 43.433L31.436 43.492L31.047 43.601L30.738 43.547L30.311 43.3L30.001 43.342L29.069 43.275L28.663 43.075L28.354 42.996L27.898 43.034L27.647 42.971L27.187 42.616L26.806 42.461L26.233 42.428L25.848 42.47L25.066 42.119L24.666 41.751L24.089 41.717L23.073 41.027L22.78 41.19L22.274 41.324L21.467 40.977H21.3L20.932 41.403L20.476 41.562L20.208 41.75L19.815 42.39L19.572 42.457L18.972 42.47L17.308 43.093L17.258 43.378L17.342 44.051L17.17 44.264L16.242 44.034L16.05 44.08L15.904 44.414L15.896 44.962L16.03 45.175L14.135 43.575L13.704 43.136L13.432 42.736L13.344 42.336L13.336 40.596L13.378 40.441L14.724 38.25L15.042 37.869L15.33 37.643L16.23 37.212L16.874 37.053L17.418 36.99L17.384 36.563L16.936 34.071L16.848 33.971L11.884 32.913L9.87201 32.746L8.98499 32.411L6.547 30.768L6.401 29.216L6.44299 29.07L6.961 28.949L7.061 28.882L7.24899 28.322L7.27798 27.983L6.67801 26.808L5.89999 26.114L5.54901 24.399L5.50699 22.755L5.56601 22.433L5.91299 21.668V21.208L5.513 20.296L3.58499 20.254L0.326996 19.869L0.631989 19.12L2.48499 15.528L3.785 13.303L3.90201 12.993L3.246 10.124L3.146 9.90198L3.04599 9.802L1.26001 9.36298L0.859985 9.121L0.559998 8.59L0.0880127 4.13998L2.89401 4.04797L3.01501 2.823L3.10699 2.84L3.32401 0.848999L10.601 1.397L12.541 1.61398H13.679L14.034 1.84799L14.398 1.90198L14.921 1.73099L15.452 1.647L21.897 1.84698L22.487 2.38599L22.851 2.48599L23.708 3.52698L25.097 4.815L25.712 4.271L26.063 4.771L27.339 3.94299L27.916 4.48199L28.163 4.37299L28.493 4.573L27.46 4.79498L26.87 5.414L27.451 6.85699L26.832 7.47198L26.865 9.655L25.165 9.71799L24.86 10.671L25.46 11.507L26.481 11.791L28.894 13.213L30.394 14.898L31.979 15.458L32.163 15.617L32.092 16.805L31.95 17.06L31.172 17.018L30.294 17.244L30.094 19.289L30.161 19.402L31.043 18.975L31.181 18.933L31.248 19.017L31.185 19.339L30.863 20.176L28.793 24.793L28.709 25.429L28.772 25.829L28.914 26.205L29.19 26.611L29.324 26.632L32.063 26.762L33.974 26.691L35.655 26.348L36.608 26.018L39.59 25.332L39.72 25.616L39.298 28.297L38.65 28.414L38.612 28.473L37.403 28.824L37.303 29.075L37.663 29.41L38.763 30.054L39.277 30.041L40.177 29.853L40.725 29.619L41.925 29.28L42.439 29.05L43.873 28.678L44.573 28.59L45.89 28.544L46.241 28.816L46.413 29.351L46.601 30.351L46.467 30.627L46.153 30.652L45.513 30.501H45.137L44.823 30.514L44.187 30.66L43.698 31.028L43.61 31.463L43.547 31.513L43.355 31.404L43.229 30.865L42.924 30.405L42.652 30.363L42.41 30.447L42.31 30.564L42.298 30.786L42.444 31.024L42.837 31.417L42.858 31.681L42.687 32.245L42.7 32.37L43.327 32.956L44.418 34.311L44.644 34.771L44.661 35.085L44.577 35.374L44.277 35.674L43.938 35.716L43.679 35.586L43.431 35.189L43.402 34.445L42.837 33.103L42.537 32.735L42.37 32.706L42.17 32.798L42.12 32.965L42.154 33.425L42.589 34.253L42.928 35.053L42.941 35.342L42.79 35.677L42.639 35.79L42.254 35.878L42.129 36.041L42.016 36.641L41.916 36.733L41.724 36.779L41.49 36.603L41.36 36.072L41.034 35.7L40.842 35.646L40.227 36.16L40.014 36.035L39.514 35.972L39.476 36.453L39.601 37.153L39.467 37.701L39.267 38.057L39.167 38.442L39.042 38.676L38.774 38.789L38.511 38.806L38.335 39.019L38.448 39.287L39.234 40.408L39.121 41.127L38.13 42.248L37.717 42.558Z" fill="#717171"/>
</svg>
