<svg width="36" height="25" viewBox="0 0 36 25" fill="none" xmlns="http://www.w3.org/2000/svg">
<path d="M4.89001 15.789L4.25897 15.049L3.75897 14.832L3.87201 14.677L3.56702 14.907L3.45398 15.107L3.534 15.387L3.95697 15.4L4.46698 15.776L5.797 17.576L5.88098 17.43L5.61298 16.769L5.29102 16.359L4.89001 15.789Z" fill="#717171"/>
<path d="M35.259 11.4341L35.05 11.0831L34.858 10.9621L34.67 10.9331L34.482 11.0331L34.043 10.8871L33.725 10.8741L32.939 11.4431L32.793 11.4761L32.509 11.3511L31.781 10.8831L31.304 10.7531L30.794 10.6941L30.309 11.0251L30.117 10.9331L29.883 10.9121L29.205 10.6401L29.071 10.4691L29.079 10.1011L28.845 10.0761L28.69 9.99208L28.661 9.90407L28.929 9.06807L29.314 8.39507L29.64 8.06007L29.84 7.71709L30.074 7.15208L30.053 7.05208L29.601 6.80907L29.246 6.37807L29.129 6.10606L29.183 5.56209L29.124 5.40706L28.965 5.29008L28.794 5.39006L28.652 5.62407L28.313 5.69508L28.213 5.62407L28.188 5.54408L28.297 5.00008L28.038 4.55708L27.452 3.99208L27.013 3.06807L26.858 3.02608L26.799 3.07607L26.753 3.78307L26.682 3.89207L26.552 3.92107L26.464 3.75008L26.422 3.46608L26.292 3.35307L26.133 3.34108L25.87 3.52907L25.82 3.69606L25.992 3.97206L25.967 4.20607L25.854 4.29408L25.678 4.18507L25.507 3.88509L25.465 3.69307L25.503 3.51308L25.854 3.05309L26.046 2.70607L26.075 2.50606L25.975 1.91606L26.029 1.79106L26.004 1.48207L26.184 1.10606L26.038 0.851074L25.561 0.830078L25.41 0.87207L25.088 1.17207L24.77 1.74107L24.586 1.95006L24.059 2.13008L23.959 2.27608L23.98 2.45207L24.114 2.55208L24.591 2.59807L24.829 2.69807L25.038 3.02406L25.092 3.30806L24.95 3.81807L24.766 4.15706L24.749 4.32909L25.084 4.84306L24.963 5.11906L24.687 5.41908L24.537 5.71208L24.424 6.12209H24.332L24.181 6.02208L24.072 6.12209L23.938 6.42207L23.687 6.62209L23.616 6.86507L23.545 6.88206L23.445 7.28206L23.286 7.41606L23.035 7.34908L22.78 7.06007L22.613 6.96806L22.245 6.96007L22.069 7.10606L21.789 7.16508L21.446 6.95207L21.312 6.98106L20.712 7.70006L20.691 7.87108L20.791 8.19307L20.682 8.54808V8.77007L20.757 8.92506L21.117 9.08006L21.242 9.38008L20.87 10.2161L20.736 11.0481L20.436 11.7211L20.423 11.8761L19.992 12.3441L19.77 12.3611L19.661 12.2901L19.598 12.1691L19.498 11.4291L19.398 11.2291L19.068 10.8821L18.905 10.8031H18.679L18.466 10.9281L18.32 11.0991L18.22 11.6891L18.053 12.0071L17.718 12.3211L17.505 12.3711L17.346 12.3251L17.287 12.1991L17.379 11.1991L17.27 10.5991L17.161 10.4231L16.761 10.1601L16.636 10.1431L16.377 10.2641L16.323 10.4311L16.34 10.6571L16.21 10.7571L16.093 10.7321L15.913 10.2891H15.779L15.633 10.4151L15.433 10.7151L15.233 10.7071L15.124 10.7701L14.777 11.1381L14.568 11.2591L14.401 11.2721L13.895 11.0921L13.724 10.9371L13.469 10.5101L13.135 10.4311L12.621 10.0961L12.374 10.1091L11.262 10.8661L11.028 10.7821L10.802 10.2681L10.417 9.90807L10.057 9.68208L9.815 9.32707L9.59302 9.11809L9.47998 9.10106L9.17999 9.23506L8.97998 9.51906L8.633 10.3811L8.508 10.5651L8.37 10.6321L8.01001 10.4861L7.80103 10.2311L7.70898 9.85509L7.72198 9.39906L8.03101 8.99907L8.10602 8.74806L8.06403 8.60207L7.80499 8.22108L7.70502 7.91206L7.67603 7.16307L7.85199 6.77806L7.95203 6.29308L7.74701 5.43608L6.69897 3.73409L6.52301 3.24507L6.44397 3.17809L5.93799 3.03609L5.80798 3.04909L5.33099 3.40407L4.81702 3.37907L4.18097 3.57909L3.771 3.93007L3.59998 4.24007L2.90002 4.82106H2.03003L1.82098 4.59508L1.53699 5.40208L0.294983 7.12108L0.575012 10.1741L1.375 11.2741L1.651 11.8341L1.75098 12.8081L1.76398 13.5401L1.70099 13.9081L1.78497 14.0841L1.97302 14.0761L2.27802 14.2431L2.39099 14.5271L2.85101 14.8991L2.88 15.1581L3.01398 15.2581L3.38202 15.7581L3.66602 15.7661L3.896 16.3391L4.31799 16.8621L4.48102 17.2341L4.94501 17.9241L5.13702 18.4171H5.25L5.29999 18.5721L5.70599 18.9191L5.94 19.4921L6.28699 19.6221L6.50897 19.8221L6.81403 20.2361L6.61401 20.3951L6.54297 20.3571L6.422 20.4321L6.45599 20.5661L6.37598 20.6871L6.22101 20.7291L5.98297 20.6291L5.78302 20.1231L5.62799 20.6421L5.64502 20.9421L5.77899 21.2101L6.12598 21.1101L6.64001 21.1521L6.995 21.3401L6.87799 21.4151L7.25403 21.4321L7.43402 21.5321L7.85199 21.8881L7.94397 22.0881L8.086 22.0501L8.19501 21.9411L10.232 21.4181L11.646 21.1631L14.469 21.1211V21.2131L14.314 21.4301L13.745 22.1241L14.092 22.9481L14.878 23.7221L17.212 24.8641L17.379 24.8971L17.697 24.7211L18.96 23.5291L19.278 23.1111L19.592 22.5051L20.106 22.1751L21.825 21.2421L23.264 20.8111L24.059 20.3051L23.139 19.1881L23.988 18.3981L24.488 18.0631L28.081 17.1471L29.616 17.1601L29.859 17.2601L30.164 17.4941L31.557 17.8081L32.168 17.8711L34.209 17.6871L34.431 17.5741L34.598 17.3821L35.125 14.9311L34.949 14.8221L34.761 14.5791L34.828 14.4411L35.355 14.3161L35.577 14.1451L35.777 13.7181L35.589 13.3751L35.267 11.4391L35.259 11.4341ZM5.79199 17.5771L4.46198 15.7771L3.95203 15.4011L3.53003 15.3881L3.45001 15.1041L3.56299 14.9041L3.86798 14.6701L3.755 14.8291L4.255 15.0421L4.88599 15.7821L5.60999 16.7651L5.87799 17.4261L5.79199 17.5771Z" fill="#717171"/>
</svg>
