<svg width="99" height="113" viewBox="0 0 99 113" fill="none" xmlns="http://www.w3.org/2000/svg">
<path d="M98.328 66.859L98.111 68.85L98.019 68.833L97.898 70.058L95.092 70.15L95.565 74.6L95.865 75.131L96.265 75.374L98.051 75.813L98.151 75.913L98.251 76.135L98.908 79.004L98.791 79.313L97.491 81.538L95.638 85.13L95.333 85.879L94.806 84.428L94.028 83.316L93.622 82.848L93.38 82.735L92.498 83.535L91.515 84.075L90.938 84.121L90.173 84.021L89.738 83.691L89.307 83.043L88.807 83.005L88.343 83.084L87.962 83.536L87.062 85.493L86.815 87.546L86.915 87.692L87.141 87.776L87.296 88.076L87.225 89.025L86.857 91.584L86.497 92.144L85.535 94.683L85.619 95.093L85.954 95.135L86.554 94.75L86.897 94.779L86.972 94.967L86.913 95.435L86.733 95.694L85.273 97.07L84.591 97.388L80.865 98.195L80.355 98.111L78.105 97.149L77.231 96.672L77.039 96.237L76.621 95.589L74.329 94.723L73.907 94.652L73.69 94.769L73.544 95.007L73.477 95.3L73.498 95.706L73.322 98.132L72.557 100.449L72.257 100.988L72.04 101.113H71.793L70.601 100.745L70.183 100.545L66.566 101.766L66.357 101.912L66.324 102.067L66.462 102.389L67.081 103.029L67.487 103.368L67.88 103.974L68.445 106.157L68.374 106.563L68.161 107.174L67.672 108.153L67.655 108.416L67.726 108.755L68.065 109.512L68.952 111.101L68.785 111.281L68.563 111.369L67.476 111.536L66.895 111.691L66.56 111.85L66.071 112.189L65.95 110.775L65.799 110.294L63.963 106.367L61.907 104.82L60.569 105.146L60.117 105.121L57.164 104.004L56.664 103.523L54.878 101.102L55.472 99.964L55.844 99.826L57.684 98.709L58.575 97.676L59.633 95.676L60.173 93.288L60.361 91.465L60.21 90.077L60.361 89.818L60.825 89.618L61.686 89.668L62.522 90.212L62.865 90.542L63.706 90.956L64.919 91.182L66.529 91.282L66.922 91.123L67.19 90.868L68.59 89.137L69.196 87.41L69.267 86.979L70.936 85.804L71.521 81.931L68.188 81.454L65.708 81.191L62.099 80.691L61.668 80.549L61.333 80.373L60.856 79.913L59.961 75.681L59.631 74.497L59.225 74.405L59.037 74.484L58.737 75.362L58.264 76.483L57.315 76.642L55.73 76.667L53.63 76.91L53.392 76.989L53.049 78.867L52.97 79.067L46.199 78.277L46.157 75.094L45.457 74.287L45.089 74.224L44.173 74.713L43.738 75.169L41.488 80.269L41.258 80.348L40.158 80.448L38.736 80.486L38.936 79.553L38.794 78.93L38.56 78.491L37.673 77.791L33.562 75.407L30.016 73.483L27.766 72.517L26.444 72.136L25.591 72.157L25.403 72.312L25.035 72.35L24.797 71.769L24.212 69.615L23.342 67.796L22.685 67.135L21.205 66.34L20.205 65.692L19.305 64.722L18.724 63.86L17.324 61.06L16.885 61.093L11.218 62.435L9.68301 62.82L9.44901 62.937L0.700012 50.947L6.07401 47.978L3.255 42.897L3.78201 36.297L15.349 14.463L8.892 12.715L6.44501 8.328L24.16 4.878L32.712 3.368L34.167 3.652L35.426 3.80299L39.483 4.242L41.963 4.40099L42.963 4.577L48.893 5.033L54.593 5.313L54.677 5.25L55.032 5.23299L59.432 3.071L62.359 1.791L64.191 0.875L65.052 0.661995L65.504 0.615997L66.204 0.644997L66.551 0.778999L66.869 1.022L67.283 1.49899L69.683 6.777L70.528 7.577L72.033 9.141L76.583 13.189L77.21 15.727L79.987 24.672L85.244 22.196L85.39 35.286L85.369 38.301L85.126 38.226L84.114 37.712H84.014L83.972 40.472L83.591 40.932L83.465 47.891L83.494 48.791L93.594 50.012L95.049 66.612L98.328 66.859Z" fill="#717171"/>
</svg>
