<svg width="126" height="122" viewBox="0 0 126 122" fill="none" xmlns="http://www.w3.org/2000/svg">
<path d="M65.733 9.786L65.879 13.015L65.039 15.46L63.692 17.735L62.513 20.26L62.091 22.029H61.167L60.41 22.113L59.82 22.703L59.569 23.803L59.908 25.739L60.414 26.839L60.75 28.007L59.738 28.346L58.475 27.673L57.463 28.263L56.706 29.948L55.694 31.717L54.77 32.729L53.507 31.972L53.34 30.287L53.256 27.677L52.75 27.003V25.56H53.423L53.929 26.739L54.686 27.161L55.865 26.739L56.455 25.476V23.791L56.877 22.444L55.61 21.687L54.263 20.587L54.012 19.575L54.769 18.734L55.526 18.567L56.367 18.989L56.451 15.539L57.63 15.372L57.55 14.03L56.538 13.779L54.938 13.528L54.348 13.95L53.675 14.791L52.75 15.214L53.34 14.29L54.519 12.103L55.276 11.003L54.854 9.74L54.015 8.56L54.266 6.96L54.688 5.53L56.11 2.848L65.733 9.786ZM49.708 0L49.633 1.485L48.96 2.832L48.876 4.852L47.276 6.282L46.435 7.629L46.35 10.07L45.25 11.17L44.75 13.524L43.487 15.544L42.65 17.815L42.483 19.751L42.567 22.277L43.073 23.456L43.914 24.97L43.747 26.07L42.481 29.6L42.648 31.787L43.572 33.974L44.496 35.074L45.76 35.66L47.445 36.333L48.708 36.417L49.808 37.258L50.649 37.509L51.071 36.668L51.744 36.501L52.75 36.584L53.507 36.245L55.607 35.572L56.707 35.066L57.38 35.488L57.719 37.002L56.962 37.926L55.778 38.691L56.2 40.205L57.124 40.627L57.881 41.384L60.068 41.723L61.168 42.647L62.431 42.814L64.957 43.065L66.81 43.149L68.324 42.225L69.336 42.815L69.842 43.237L71.442 42.898L72.283 42.647L73.797 43.153L75.897 42.731L77.917 42.058L80.865 40.879L81.116 39.779H82.546L83.052 39.022L82.634 38.269L83.307 36.839L85.917 34.739L87.85 32.804L89.029 30.704L89.368 29.104L88.946 28.514L88.273 27.924L87.851 27.083L89.474 26.937L98.541 33.482L99.465 36.43L102.003 38.994L104.675 42.218L104.796 42.486L105.064 42.733L106.122 43.992L108.506 46.924L115.55 55.66L116.232 56.312L116.462 56.333L118.908 60.724L125.361 62.472L113.793 84.302L113.266 90.902L116.085 95.983L110.711 98.952L119.46 110.942L125.227 118.963L120.652 121.079L119.586 121.585L119.314 121.506L119.201 121.414L117.294 118.314L116.667 117.156L113.321 113.472L112.033 112.672L110.561 111.894L106.818 111.032L105.547 111.024L105.288 111.108L104.707 111.43L104.381 111.802L103.892 112.764L103.679 113.546L103.379 113.868H102.75L101.809 113.268L101.709 112.783L101.554 112.419L100.709 111.47L100.409 111.215L100.1 111.094L99.2 110.943L98.61 110.7L96.118 108.8L92.676 105.743L92.019 105.116L90.619 103.485L88.45 101.46L88.161 101.33L87.881 101.058L87.726 100.866L86.438 98.612L86.267 97.583L86.25 96.483L86.179 96.24L86.016 96.04L83.808 95.572L82.026 96.153L81.231 96.504L80.114 98.691L80.022 98.469L79.813 98.218L79.583 98.055L78.571 97.708L78.232 97.495L77.488 96.579L77.417 96.596L77.279 96.45L76.911 96.534L76.384 96.015L76.305 95.676L76.384 95.534L76.618 95.346L77.797 95.262L77.943 95.074L77.859 94.739L77.646 94.434L77.475 94.028L77.383 93.635L77.316 92.686L76.789 92L76.776 91.72L76.851 91.52L77.307 91.277L77.483 91.356L77.838 91.398L78.03 91.352L78.218 91.172L78.318 91.009L78.326 90.741L78.126 90.241L77.926 90.007L77.512 89.756L76.78 89.656L76.537 89.556L76.194 89.256L75.847 88.788L75.563 88.219L75.3 87.985L74.476 87.717L74.041 87.366L73.911 87.596L73.719 88.196L73.568 88.342H73.359L72.606 88.112L72.322 87.966L72.13 87.974L71.904 87.886L71.08 87.869L70.423 88.024H69.791L69.231 88.091L66.131 88.133L65.893 87.945L65.588 87.36L65.316 87.235L64.948 86.792L63.258 85.107L63.241 84.94L63.433 84.421L63.387 83.907L61.965 82.06L61.765 81.868L61.301 81.592L61.134 81.567L60.678 81.692L60.278 82.014L60.04 82.114L58.95 82.039L58.657 81.947L57.996 81.587L57.047 81.311L56.767 81.177L56.05 80.55L54.298 78.626L52.286 76.389L50.996 74.76L50.796 74.58L50.783 74.935L50.653 75.428L50.695 75.658L51.067 76.03L51.084 76.151L51.013 76.368L50.871 76.46H50.695L50.465 76.33H50.202L49.989 76.593V76.66L50.278 76.898L50.387 77.074L50.211 77.986L50.081 78.186L49.881 78.311L49.4 78.156L48.292 78.365L47.845 78.39L47.293 78.122L46.787 78.022L46.287 77.784L45.664 77.613L44.45 77.367L44.074 77.38L43.48 77.618L43.045 77.869L42.071 78.68L41.812 78.705L41.641 78.851L41.566 79.14L41.7 79.458L42.478 80.023L43.469 80.579L43.883 80.738L44.448 80.838L44.636 81.064L45.75 83.66L46.294 84.517L46.532 84.801L46.611 85.194L46.594 85.7L46.778 85.867L47 85.813L48.317 86.641L48.717 86.971L48.771 87.271L48.558 87.706L48.403 87.815L48.223 87.823L47.341 87.614L46.559 87.773L46.48 87.493L46.53 86.648L46.484 86.209L46.145 85.009L45.845 84.449L45.473 84.035L44.95 83.684L42.924 83.16L42.589 83.181L41.678 83.66L41.134 83.86L41.055 83.818L40.976 83.518L40.591 83.246L40.47 83.091L40.357 82.591L40.002 82.277L39.602 82.202L39.002 82.332L38.588 82.616H38.366L38.253 82.737L38.086 83.502L37.965 83.816L37.831 83.762L37.522 83.402L37.338 83.356L37.058 83.448L36.966 83.611L36.849 84.259L36.991 84.585L37.363 84.928L37.547 85.228L37.685 85.68L37.677 85.906L37.522 86.345L37.535 86.935L37.435 87.399L37.485 88.047L37.401 88.72L37.326 88.971L37.184 89.134L36.984 89.201L36.629 89.188L35.935 88.899L35.75 88.935L35.633 89.152L35.491 89.652L35.784 90.152L35.968 90.612L35.889 90.788L35.525 90.838L34.245 90.621L33.162 90.993L32.422 91.382L32.113 91.457L31.862 91.449L31.185 91.035L30.403 90.88L29.445 90.805L27.283 90.922L26.463 91.227L25.409 91.746L24.493 92.415L23.966 92.871L23.498 93.544L23.327 93.908L23.043 94.573L22.596 95.966L22.341 96.321L21.868 96.781L21.568 96.961L20.995 97.174L20.095 97.442L19.79 97.626L19.43 97.956L19.045 98.756L18.915 99.609L18.727 100.374L18.748 101.524L18.873 102.645L18.814 103.787L19.048 104.778L19.215 105.192L19.374 105.401L19.366 105.501L19.517 105.568L19.739 105.999L19.839 106.48L19.877 106.815L19.793 107.325V108.304L19.969 109.617L20.094 110.031L20.253 110.331L21.027 111.431L21.408 111.439L22.224 111.188L22.404 111.355L22.421 111.572L22.287 111.872L22.12 112.039L21.898 112.177L21.07 112.466L20.719 112.796L20.527 113.164L20.51 113.791L20.376 114.071L20.176 114.297L19.946 114.418H19.394L18.641 114.234L16.985 114.092L15.249 113.845L12.426 113.669L10.849 113.636L8.385 113.36L6.925 113.251H6.139L3.973 113.051L0.034 112.888L0 15.641L0.636 15.478L1.236 15.215L13.836 11.096L13.844 11.042L14.544 10.921L14.686 10.775L15.108 10.633L20.608 8.877L38.864 3.228L41.645 2.3L42.573 2.108L49.708 0Z" fill="#717171"/>
</svg>
