<svg width="66" height="39" viewBox="0 0 66 39" fill="none" xmlns="http://www.w3.org/2000/svg">
<path d="M15.068 2.185L15.557 1.84598L15.892 1.68698L16.473 1.53198L17.56 1.36499L17.782 1.27698L17.949 1.09698L18.238 1.164L25.577 1.38599L26.2 1.311L26.748 1.08099L27.348 0.634003L27.428 0.520996L27.445 0.382996L29.245 0.750977L30.625 2.34399L31.783 4.289L31.821 4.91199L31.913 5L32.213 5.10001L33.501 5.42599L34.141 5.409L35.065 4.832L36.432 4.13199L39.589 3.35001L39.852 3.41699L40.341 3.73099L41.031 4.33099L41.717 4.81198L42.005 4.94998H42.13L43.652 4.298L43.995 3.89798L44.455 3.15399L44.802 2.754L45.141 2.63699L45.641 2.612L49.225 3.25198L49.489 3.53198L49.689 4.08398L49.643 4.61099L49.451 5.32199L49.476 5.564L49.614 5.76398L50.003 5.98599L50.793 6.04898L52.416 5.94901L52.759 5.86099L52.935 5.66098L52.981 5.51498L52.952 4.771L53.132 4.57098L53.5 4.54999L55.365 5.08099L56.436 5.53699L58.042 6.03699L58.732 6.17099L59.15 6.07098L59.309 6.73199L59.89 7.73999L60.195 8.05399L60.595 8.276L61.331 8.431L61.59 8.60199L61.945 8.72299L62.279 8.73099L62.71 8.63898L63.162 8.71799L63.588 8.918L63.86 9.61798L64.098 9.71799L64.763 9.75098L64.88 9.87198V10.11L64.734 10.323L64.646 11.368L64.83 11.895L64.884 12.752L65.047 12.986L64.72 13.322L64.31 13.565L62.641 13.665L62.281 13.774L62.068 13.874L61.788 14.112L61.6 14.463L61.575 14.63L61.801 15.943L62.228 16.821L62.387 17.013L62.45 17.23L62.504 18.986L61.944 20.786L61.718 20.711L61.128 20.111L60.71 19.977L60.11 19.948L59.633 20.086L59.445 20.228L59.198 20.496L58.859 21.04L58.359 21.968L54.641 25.682L54.341 27.082L54.274 27.718L54.119 28.303L53.931 28.667L52.919 29.683L52.154 30.218L50.674 30.992L45.831 36.052L45.651 36.575L45.216 38.361L45.329 38.737L44.329 37.57L43.89 37.29L43.271 37.035L41.937 36.889L40.837 37.232L40.599 37.257L40.072 37.119L39.558 36.672L38.391 35.986L37.626 35.12L37.087 34.146L36.887 34.021L36.092 33.975L34.628 33.544L34.365 33.377L34.156 32.971L33.667 32.804L33.303 32.75L32.985 32.415L32.785 32.344L32.212 32.373L31.865 32.26L31.489 32.009L30.689 31.189L30.313 31.089H29.865L29.459 31.202L29.154 31.788L28.92 31.759L28.861 31.801L28.794 32.069L28.639 32.14H28.417L26.46 31.74L22.307 30.101L21.491 29.633L18.82 27.912L18.046 27.289L16.917 26.235L13.735 23.057L13.492 22.894L12.35 22.371L10.886 21.815L9.65701 21.242L8.93301 20.715L8.67801 20.439L4.92001 18.122L3.785 17.322L1.46802 15.177L0.968018 14.629L3.32001 12.022L10.898 9.245L11.015 8.98999L10.915 8.77698L10.572 8.28799L10.225 7.91998L9.92502 7.41998L9.862 7.06L10.008 6.629L11.848 4.659L12.086 4.61298L13.486 3.685L15.068 2.185Z" fill="#717171"/>
</svg>
