<svg width="47" height="35" viewBox="0 0 47 35" fill="none" xmlns="http://www.w3.org/2000/svg">
<path d="M46.764 33.308L46.718 33.433L46.049 33.303L45.643 33.391L44.25 33.872L44.15 33.993V34.072L43.732 34.172L43.042 34.038L41.436 33.538L40.365 33.082L38.5 32.551L38.132 32.572L37.952 32.772L37.981 33.516L37.935 33.662L37.759 33.862L37.416 33.95L35.793 34.05L35.003 33.987L34.614 33.765L34.476 33.565L34.451 33.322L34.643 32.611L34.689 32.084L34.489 31.532L34.225 31.252L30.641 30.612L30.141 30.637L29.802 30.754L29.455 31.154L28.995 31.898L28.652 32.298L27.13 32.95H27.005L26.716 32.812L26.03 32.331L25.34 31.731L24.851 31.417L24.588 31.35L21.431 32.132L20.063 32.832L19.139 33.409L18.499 33.426L17.211 33.1L16.911 33L16.819 32.912L16.781 32.289L15.623 30.344L14.243 28.751L12.443 28.383L12.426 28.521L12.347 28.634L11.747 29.081L11.199 29.311L10.576 29.386L3.237 29.164L2.948 29.097L2.061 27.508L1.72202 26.751L1.651 26.412L1.668 26.149L2.15701 25.17L2.37 24.559L2.44101 24.153L1.87601 21.97L1.483 21.364L1.077 21.025L0.458008 20.385L0.320007 20.063L0.354004 19.908L0.562988 19.762L4.17999 18.541L4.59799 18.741L5.79001 19.109H6.03702L6.254 18.984L6.55402 18.444L7.319 16.127L7.495 13.701L7.474 13.295L7.54102 13.002L7.68701 12.764L7.90399 12.647L8.32599 12.718L10.618 13.584L11.036 14.232L11.228 14.667L12.102 15.144L14.352 16.106L14.862 16.19L18.588 15.383L19.27 15.065L20.73 13.689L20.91 13.43L20.969 12.961L20.894 12.773L20.551 12.744L19.951 13.129L19.617 13.087L19.533 12.677L20.495 10.139L20.855 9.57901L21.223 7.02002L21.294 6.07101L21.139 5.771L20.913 5.68701L20.813 5.54102L21.06 3.48801L21.96 1.53101L22.341 1.07901L22.805 1L23.305 1.03799L23.736 1.686L24.171 2.01602L24.936 2.116L25.513 2.07001L26.496 1.53101L27.378 0.731018L27.621 0.843994L28.027 1.31201L28.805 2.42401L29.332 3.875L32.59 4.26001L34.518 4.302L34.918 5.21402V5.67401L34.571 6.439L34.512 6.76102L34.554 8.405L34.905 10.12L35.683 10.814L36.283 11.989L36.254 12.328L36.066 12.888L35.966 12.955L35.447 13.076L35.405 13.222L35.551 14.774L37.989 16.418L38.876 16.753L40.888 16.92L45.852 17.978L45.94 18.078L46.387 20.57L46.421 20.997L45.877 21.06L45.233 21.219L44.333 21.65L44.044 21.876L43.726 22.257L42.379 24.448L42.337 24.603L42.345 26.343L42.433 26.743L42.705 27.143L43.136 27.582L45.03 29.182L45.963 31.135L46.31 32.097L46.703 32.912L46.791 33.251L46.764 33.308Z" fill="#717171"/>
</svg>
