<svg width="24" height="26" viewBox="0 0 24 26" fill="none" xmlns="http://www.w3.org/2000/svg">
<path d="M13.9003 19.2788L8.65151 16.4163C7.96625 17.1488 7.07649 17.6584 6.09785 17.8786C5.11921 18.0989 4.09694 18.0197 3.16391 17.6513C2.23087 17.2829 1.43021 16.6425 0.865967 15.8131C0.301726 14.9837 0 14.0038 0 13.0006C0 11.9975 0.301726 11.0176 0.865967 10.1882C1.43021 9.35882 2.23087 8.71832 3.16391 8.34996C4.09694 7.9816 5.11921 7.9024 6.09785 8.12265C7.07649 8.34291 7.96625 8.85243 8.65151 9.58501L13.9015 6.72251C13.6035 5.5426 13.746 4.2945 14.3023 3.21214C14.8586 2.12978 15.7906 1.28749 16.9236 0.843137C18.0565 0.398788 19.3127 0.382891 20.4565 0.798428C21.6003 1.21396 22.5533 2.03241 23.1369 3.10034C23.7204 4.16827 23.8945 5.41237 23.6264 6.59944C23.3583 7.78651 22.6664 8.83506 21.6805 9.54852C20.6947 10.262 19.4824 10.5914 18.271 10.475C17.0596 10.3586 15.9323 9.8044 15.1003 8.91626L9.85026 11.7788C10.0518 12.5805 10.0518 13.4196 9.85026 14.2213L15.099 17.0838C15.931 16.1956 17.0584 15.6414 18.2698 15.525C19.4811 15.4086 20.6934 15.738 21.6793 16.4515C22.6652 17.165 23.357 18.2135 23.6251 19.4006C23.8932 20.5877 23.7192 21.8318 23.1356 22.8997C22.5521 23.9676 21.5991 24.7861 20.4552 25.2016C19.3114 25.6171 18.0553 25.6012 16.9223 25.1569C15.7894 24.7125 14.8574 23.8702 14.301 22.7879C13.7447 21.7055 13.6022 20.4574 13.9003 19.2775V19.2788ZM5.00026 15.5C5.6633 15.5 6.29918 15.2366 6.76802 14.7678C7.23687 14.2989 7.50026 13.6631 7.50026 13C7.50026 12.337 7.23687 11.7011 6.76802 11.2322C6.29918 10.7634 5.6633 10.5 5.00026 10.5C4.33722 10.5 3.70133 10.7634 3.23249 11.2322C2.76365 11.7011 2.50026 12.337 2.50026 13C2.50026 13.6631 2.76365 14.2989 3.23249 14.7678C3.70133 15.2366 4.33722 15.5 5.00026 15.5ZM18.7503 8.00001C19.4133 8.00001 20.0492 7.73662 20.518 7.26778C20.9869 6.79894 21.2503 6.16305 21.2503 5.50001C21.2503 4.83697 20.9869 4.20108 20.518 3.73224C20.0492 3.2634 19.4133 3.00001 18.7503 3.00001C18.0872 3.00001 17.4513 3.2634 16.9825 3.73224C16.5137 4.20108 16.2503 4.83697 16.2503 5.50001C16.2503 6.16305 16.5137 6.79894 16.9825 7.26778C17.4513 7.73662 18.0872 8.00001 18.7503 8.00001ZM18.7503 23C19.4133 23 20.0492 22.7366 20.518 22.2678C20.9869 21.7989 21.2503 21.1631 21.2503 20.5C21.2503 19.837 20.9869 19.2011 20.518 18.7322C20.0492 18.2634 19.4133 18 18.7503 18C18.0872 18 17.4513 18.2634 16.9825 18.7322C16.5137 19.2011 16.2503 19.837 16.2503 20.5C16.2503 21.1631 16.5137 21.7989 16.9825 22.2678C17.4513 22.7366 18.0872 23 18.7503 23Z" fill="#717171"/>
</svg>
