<svg width="21" height="23" viewBox="0 0 21 23" fill="none" xmlns="http://www.w3.org/2000/svg">
<path d="M16.199 21.129L15.5261 21.535L14.9871 21.673L13.9871 21.393L13.577 21.577L11.3021 22.305L11.7241 19.624L11.5941 19.34L8.61206 20.026L7.65906 20.356L5.97803 20.699L4.06702 20.77L1.32806 20.64L1.19403 20.619L0.91803 20.213L0.776062 19.837L0.713013 19.437L0.797058 18.801L2.86707 14.184L3.18903 13.348L3.25201 13.026L3.18506 12.942L3.04706 12.984L2.16504 13.411L2.09802 13.298L2.29803 11.253L3.17603 11.027L3.95404 11.069L4.09601 10.814L4.16705 9.62601L5.69305 10.926L6.48401 10.717L7.28406 11.374L7.05804 11.851L9.09503 12.451L9.43402 11.983L10.434 12.058L12.234 11.335L11.8831 10.461L10.8751 9.922L10.403 8.54602L9.03107 6.65201L9.39502 3.53601L8.97705 2.478L9.33704 2.10202L8.96906 1.521L7.45502 1.42102V0.877014L9.51202 1.00702L9.64606 1.258L10.6331 0.643005L10.6251 0.743011L10.7551 0.781006L10.8391 1.28101L11.119 1.38101L11.4531 1.22601L11.846 1.314L12.001 1.47302L11.942 1.61102L11.342 1.841L11.2631 1.987L11.2501 2.22101L11.476 2.664L11.6431 2.526L13.675 4.83401L15.126 6.285L17.184 8.142L19.1541 9.77701L19.413 9.811L20.6801 11.58L20.471 13.546L20.111 15.771L19.689 17.845L19.697 18.288L19.7551 18.547L19.9641 18.986L19.864 20.964L19.4 20.818L18.325 20.81L16.92 20.956L16.199 21.129Z" fill="#717171"/>
</svg>
