<svg width="37" height="46" viewBox="0 0 37 46" fill="none" xmlns="http://www.w3.org/2000/svg">
<path d="M36.6389 22.009L36.208 23.485L36.149 23.999L35.187 25.011L34.5009 26.311L34.5299 26.968L34.33 27.432L34.368 27.762L34.222 28.134L33.177 28.623L31.4829 28.916L31.144 29.516L29.822 32.339L29.341 33.033L28.768 33.443L27.81 34.685L27.3709 35.701L26.8399 36.717L26.175 37.357L25.675 38.98L25.654 40.051L25.763 41.728L25.529 44.513L25.229 45.529L24.945 45.713L24.698 45.249L24.071 44.749L23.762 44.657L23.185 44.72L23.009 44.695L22.649 44.377L22.231 44.13L21.976 44.168L21.403 44.398L21.123 44.624L20.96 44.833L20.667 44.871L20.491 44.599L20.315 44.026L20.006 43.726L19.663 43.559L19.383 43.618L19.145 43.777L18.363 44.496L17.798 44.688L17.317 44.972L16.79 45.018L16.021 45.218L15.621 45.649L14.994 45.912L14.768 45.828L14.408 45.506L14.337 44.866L14.22 44.666L13.8979 44.511L13.743 44.147L13.63 44.034L13.224 43.875L13.0359 43.733L12.743 43.796L12.551 43.746L11.915 43.391L11.723 43.091L11.874 42.451L11.74 42.1L11.017 41.74L10.448 41.15L10.268 41.041L9.46097 40.741L8.67496 40.795L7.17496 41.46L6.51398 41.381L6.17096 41.41L5.23798 41.728L4.42297 41.528H4.02295L3.56296 41.683L2.89395 41.528L2.28796 41.628L1.79895 41.578L1.04996 41.607L0.501953 41.833L0.334961 40.992L0.405975 40.716L0.585968 40.457L0.945953 40.193L1.41898 39.951L2.68997 39.57L2.81598 39.265V38.951L2.63596 38.491L0.728973 36.174L0.619965 35.551L0.853973 33.201L0.732971 32.561V32.31L0.920959 31.01L1.22995 30.261L1.53497 29.793L1.85696 29.475L2.08298 28.944L2.31696 28.639L3.26996 28.083L3.44995 27.916L3.54996 27.569L3.53696 27.197L3.31097 26.758L3.19797 26.382L3.63297 24.596L3.81296 24.073L8.65598 19.013L10.136 18.239L10.901 17.704L11.913 16.688L12.101 16.324L12.256 15.739L12.323 15.103L12.623 13.703L16.357 9.978L16.857 9.04999L17.196 8.50601L17.443 8.23801L17.631 8.09601L18.108 7.95801L18.708 7.987L19.126 8.121L19.716 8.72101L19.942 8.79599L20.502 6.996L20.448 5.23999L20.385 5.02301L20.226 4.83099L19.799 3.953L19.573 2.63998L19.598 2.47299L19.7859 2.12201L20.066 1.884L20.279 1.784L20.639 1.67499L22.308 1.57498L22.718 1.332L23.053 0.988983L23.216 1.211L23.5 1.332L23.88 1.198L24.139 1.298L24.574 0.997986L25.431 0.919006L25.9959 1.26199L26.611 1.32098L27.05 0.756012L27.907 0.72699L28.3419 0.497009H28.5299L28.994 0.981995L29.421 1.082L30.1909 0.667999L30.714 0.72699L31.2329 1.07001L31.597 1.83899L31.727 2.26999L32.852 3.14801L32.89 3.483L32.831 4.00198L32.685 4.09399L32.81 4.99399L32.283 5.26599L32.036 5.642L31.6049 5.776L30.559 5.94299L30.413 6.177L31.471 7.716L31.32 7.996L30.6549 8.07498L30.124 8.58499L30.3 9.20401L30.664 10.015V10.203L30.464 10.437L30.326 12.658L31.338 14L31.756 14.339L31.601 14.807L31.2119 15.413L31.112 15.835H31.3L31.919 15.563H32.112L32.812 15.956L33.4019 16.956L33.49 17.286L33.523 17.855L33.615 17.955L34.175 18.155L34.781 18.455L35.1989 18.743L36.023 19.801L36.031 19.96L36.331 20.512L36.787 21.135V21.465L36.6389 22.009Z" fill="#717171"/>
</svg>
