<svg width="25" height="25" viewBox="0 0 25 25" fill="none" xmlns="http://www.w3.org/2000/svg">
<path d="M11.1649 0.05651C10.9942 0.18826 10.9842 0.364009 10.9842 3.049V5.70475L11.1014 5.8365C11.2624 6.02699 11.536 6.02699 11.697 5.8365L11.8142 5.70475V3.05375C11.8142 0.320009 11.8045 0.144259 11.619 0.0465097C11.492 -0.02174 11.2624 -0.0119901 11.1649 0.05651Z" fill="#717171"/>
<path d="M3.34392 3.34205C3.26567 3.42005 3.22192 3.5128 3.22192 3.6203C3.22192 3.7618 3.40742 3.96205 5.14042 5.70005C6.18992 6.75455 7.10292 7.64305 7.16642 7.66755C7.42517 7.77005 7.76192 7.4723 7.69367 7.1988C7.66917 7.11105 3.97367 3.3713 3.79792 3.26405C3.67592 3.18105 3.46117 3.22005 3.34392 3.34205Z" fill="#717171"/>
<path d="M16.3787 4.61127C16.1737 4.81152 16.2127 4.96752 16.5787 5.39727C17.7992 6.85702 18.7804 8.98552 19.1172 10.909C19.2197 11.4803 19.2149 12.603 19.1124 13.2913C18.7659 15.6248 17.4477 17.4703 15.4462 18.432C14.2207 19.0178 12.5707 19.3155 11.2477 19.1888C9.44618 19.013 7.08343 17.9928 5.52118 16.7185C5.06218 16.3475 4.91593 16.3085 4.71068 16.4988C4.54468 16.655 4.55443 16.7868 4.78393 17.48C5.28193 18.964 6.03868 20.1895 7.17118 21.3465C8.82618 23.0405 10.8374 24.0365 13.2442 24.3588C13.8104 24.432 14.9919 24.4173 15.6802 24.3295C19.8839 23.7873 23.3939 20.5508 24.2824 16.3963C24.8682 13.6525 24.2579 10.7675 22.5982 8.45827C21.2752 6.62752 19.2394 5.19227 17.1254 4.61627C16.5642 4.46002 16.5252 4.46002 16.3787 4.61127ZM18.3462 5.88552C19.8987 6.59327 21.4022 7.91152 22.2957 9.34677C24.9954 13.677 23.7602 19.3743 19.5227 22.1275C17.9994 23.1185 16.2614 23.6263 14.4014 23.6263C11.1697 23.6263 8.37718 22.1373 6.59043 19.457C6.34643 19.0958 5.74593 17.9583 5.77993 17.929C5.78968 17.9193 6.01918 18.0413 6.28768 18.2025C8.33818 19.423 10.5642 20.0918 12.2044 19.9893C14.5967 19.8428 16.4174 19.052 17.8724 17.5338C19.6104 15.7275 20.3474 13.018 19.8104 10.4208C19.5419 9.10752 18.8829 7.47701 18.0919 6.18327C17.7309 5.59252 17.7262 5.60227 18.3462 5.88552Z" fill="#717171"/>
<path d="M16.076 6.26128C15.8612 6.37853 15.1875 7.00828 15.129 7.14003C15.046 7.33528 15.1192 7.52078 15.3192 7.62328C15.5535 7.74053 15.6755 7.67703 16.198 7.18378C16.7104 6.70053 16.7497 6.58828 16.5054 6.33928C16.3494 6.18828 16.2469 6.16853 16.076 6.26128Z" fill="#717171"/>
<path d="M10.5447 6.90574C8.80665 7.26199 7.38115 8.63874 6.94665 10.3817C6.88815 10.621 6.86365 10.909 6.86365 11.4215C6.86865 12.0465 6.88315 12.1782 7.0004 12.5637C7.7619 15.073 10.3104 16.4887 12.7074 15.732C13.9424 15.3462 14.9532 14.4627 15.5242 13.2715C15.8367 12.6125 15.9294 12.1975 15.9342 11.3967C15.9342 10.8305 15.9194 10.645 15.8267 10.3032C15.3532 8.56049 13.9519 7.24224 12.2142 6.90049C11.7749 6.81799 10.9744 6.81799 10.5447 6.90574ZM12.2144 7.68699C13.6154 7.97999 14.6944 9.01499 15.0654 10.4207C15.2022 10.9332 15.1924 11.9047 15.0459 12.4175C14.6699 13.7307 13.6887 14.6925 12.3754 15.039C11.8287 15.1805 10.9647 15.1855 10.4227 15.039C9.09966 14.6875 8.13315 13.7405 7.7524 12.4175C7.6109 11.9097 7.59615 10.8845 7.7329 10.4012C8.1234 8.98549 9.23166 7.94574 10.6474 7.66749C10.9892 7.59899 11.8579 7.60874 12.2144 7.68699Z" fill="#717171"/>
<path d="M0.219691 11.0408C-0.0293082 11.1726 -0.073308 11.4508 0.121941 11.6413L0.239191 11.7633H3.02193H5.80467L5.90242 11.6363C6.03917 11.4606 6.03417 11.2506 5.88292 11.1041L5.76567 10.9821H3.04118C1.16169 10.9871 0.287941 11.0018 0.219691 11.0408Z" fill="#717171"/>
<path d="M16.9157 11.1043C16.7644 11.2508 16.7594 11.4605 16.8962 11.6365C16.9939 11.7635 17.0037 11.7635 17.5894 11.7635C18.2289 11.7585 18.3119 11.7343 18.3999 11.5048C18.4634 11.3438 18.4046 11.168 18.2486 11.0606C18.1656 11.0021 18.0144 10.9826 17.5847 10.9826C17.0622 10.9823 17.0279 10.9871 16.9157 11.1043Z" fill="#717171"/>
<path d="M6.62472 15.5565C6.02923 16.0983 5.95098 16.2303 6.06823 16.4743C6.15123 16.655 6.31222 16.7233 6.50747 16.6745C6.63922 16.6453 7.62046 15.7665 7.68396 15.625C7.78646 15.3955 7.56196 15.083 7.29347 15.083C7.16647 15.083 7.04947 15.161 6.62472 15.5565Z" fill="#717171"/>
<path d="M15.2119 15.2343C15.0019 15.4783 15.0362 15.571 15.5389 16.1228C16.0124 16.6353 16.1542 16.733 16.3689 16.6745C16.5299 16.6355 16.6667 16.3913 16.6229 16.2205C16.5984 16.1083 15.9639 15.3468 15.7489 15.171C15.5829 15.034 15.3584 15.0585 15.2119 15.2343Z" fill="#717171"/>
<path d="M11.1257 16.8842C11.0184 16.972 11.0084 17.016 10.9939 17.5725C10.9842 17.9045 10.9889 18.2462 11.0084 18.334C11.0719 18.6855 11.4429 18.8125 11.6724 18.5682C11.7847 18.4462 11.7897 18.417 11.7897 17.709C11.7897 17.001 11.7847 16.9767 11.6724 16.884C11.5262 16.7672 11.2722 16.7672 11.1257 16.8842Z" fill="#717171"/>
</svg>
