<svg width="52" height="55" viewBox="0 0 52 55" fill="none" xmlns="http://www.w3.org/2000/svg">
<path d="M14.739 24.3051L14.76 24.067L14.722 24.0081H14.622L14.497 24.1081L14.443 24.2631L14.129 24.3631L13.829 24.6771L13.536 24.6481L13.386 24.9241L13.156 24.8111L12.918 24.8571L12.249 24.5061L12.165 24.5141L12.056 24.6561L11.713 24.8111L11.282 24.7231L11.236 24.6481H11.177L10.677 25.2L10.635 25.5551L10.447 26.0781L10.388 26.442L10.338 27.0531L10.376 27.1951L10.765 27.287L10.886 27.3751L11.024 27.3L11.224 27.4001L11.358 27.7511L11.425 27.7721L11.576 27.6721L11.647 27.7721L11.935 27.826L12.173 27.8011V27.601L12.625 27.2371L13.081 27.2751L13.381 27.3751L13.314 27.5471L13.494 27.9401L13.649 28.0401L13.913 28.002L14.352 27.563L14.511 27.1991L14.482 26.7061L14.323 26.4011L14.202 26.2881L14.402 25.9701L14.544 25.8701L14.49 25.7281L14.511 25.528L14.632 25.244L14.695 25.1941L14.862 25.2151L14.824 24.9391L14.941 24.826L14.991 24.6261L14.945 24.4921L14.845 24.433L14.739 24.3051Z" fill="#717171"/>
<path d="M51.038 3.2439L50.975 3.0849L50.7031 2.8719L50.373 2.71289L48.98 1.4529L48.587 1.2269L47.855 1.1389L47.345 0.845901L47.153 0.837891L46.793 0.925903L46.316 1.1349L45.793 1.6199L45.509 1.63289L45.116 1.49089L44.9401 1.50789L44.2 2.4449L43.773 2.73289L43.373 2.9129L42.879 3.2849L42.5861 3.29289L42.143 2.8709L41.926 2.9379L41.683 3.17189L41.403 3.4769L41.0521 4.05389L40.709 4.3299L40.479 4.7059L40.069 5.03189L39.755 5.4879L39.692 6.01489L39.311 6.7679L38.851 8.0179L38.872 8.1019L38.78 8.3019L38.471 8.41089L38.296 8.40289L37.781 7.9299L37.468 7.8419L37.405 7.5789L37.451 6.9059L37.221 6.5249L36.1591 5.94389L35.0341 4.9529L34.879 4.88589L34.59 4.9449L34.4351 5.1369L34.3101 6.0239L34.218 6.17889L33.812 6.54289L33.687 6.83189L33.0261 7.2319L32.8961 7.4409L32.951 7.9299L33.093 8.51089L33.0601 8.96289L32.6251 9.2719L32.225 9.4019L32.025 9.6319L31.799 9.6239L31.314 9.8539L30.942 10.3979L30.494 10.7739L30.3101 11.0919L30.0001 11.9329L29.7531 12.3549L28.419 13.0239L27.859 13.4239L27.554 14.3189L27.41 14.4529L27.272 14.5029L27.121 14.4529L27.054 14.3319L27.075 14.0979L26.916 13.8179L26.7531 13.7889L26.4691 13.8729L26.36 14.0029L25.67 15.6719L24.445 16.1719L23.945 15.7369L23.635 15.5989H23.426L22.726 16.0379L21.873 16.1759L21.773 16.1219L21.4221 16.1759L21.2921 16.2599L21.208 16.4439L20.986 16.6659L20.702 16.8039L19.556 17.0759L19.338 17.1759L18.8281 17.6529L18.707 17.8659L18.307 18.1659L17.7631 18.7469L17.596 18.9729L17.387 19.6249L17.287 19.7419L16.978 19.9009L16.468 20.0469L16.309 20.0219L16.171 20.0719L15.471 20.6719L15.191 21.1319L15.199 21.3489L15.337 21.5749L15.826 21.8929L15.684 22.3149L15.5131 22.4029L14.5891 22.2569L14.367 22.3569L14.02 22.3739L13.472 22.5199L13.272 22.5119L12.854 22.2689L12.6201 22.2099L12.16 22.2639L12.009 22.2139L11.382 22.3479L10.9011 22.6369L10.6331 23.4319L10.449 23.6409L9.51605 24.1679L9.03906 25.3559L8.76306 25.5479L8.55005 25.5229L8.30304 25.2799L8.18201 25.2299L7.96906 25.2969L7.14105 26.5809L7.06201 27.7139L6.96204 27.8689L6.38104 28.3579L6.25604 29.1109L6.16803 29.1699L5.81201 29.1069L5.52802 29.2989L5.25604 29.6589L4.66602 30.2319L4.02606 31.0769L3.71704 31.5579L3.51703 32.0179L2.82306 32.8919L2.52301 33.5919L2.46002 34.2239L2.38904 34.3699L1.83301 34.8759L1.06805 35.1759L0.633057 35.5359L2.66602 37.8439L4.117 39.2949L6.17401 41.1519L8.14404 42.7869L8.40302 42.8199L9.67004 44.5889L9.46106 46.5539L9.10205 48.7789L8.68005 50.8529V51.2959L8.73901 51.5549L8.94806 51.9979L8.84802 53.9759L9.91406 54.0679L10.182 54.0469L10.621 54.2019L11.077 54.1639L11.399 54.0639L11.9431 54.1939L12.7631 54.2109L13.231 54.4699L13.431 54.3029L13.08 53.4159L12.9091 53.2399L12.332 53.1269L12.161 52.9509L12.261 52.5959L12.1151 52.3539L12.1901 52.0949L12.9221 52.1949L13.269 52.1699L13.742 51.7219V51.3409L13.88 51.1109L13.871 50.6049L13.436 50.2579L13.26 50.0489V49.7019L13.139 49.3629L12.972 49.2169L13.072 48.8619L12.872 48.7819L12.617 47.9159L12.441 47.7069V47.3599L12.587 47.1889L12.604 46.8709L12.3281 46.6329L11.768 45.8589L11.739 45.7209L11.8521 45.4529L12.504 45.0139L13.265 44.9139L13.629 44.9849L13.754 44.9519L13.863 44.8389L13.85 44.7639L14.017 44.4499L14.217 44.3499L14.326 43.8189L14.092 43.3049L13.95 42.8319L14.038 41.3639L14.063 41.2299L14.201 41.0669L14.285 40.6669L15.0551 39.5839L15.741 39.4999L16.017 39.6379L17.075 39.9309L17.5811 39.9939L17.895 40.3029L18.2501 41.0179L18.35 41.5179L18.58 41.8439L19.1071 42.2199L19.412 42.5879L19.7 42.6339L19.867 42.7219L20.076 43.2659L20.202 43.4369L20.478 43.4999L21.155 43.4539L21.544 43.2069L22.13 41.9439L22.3181 41.7769L22.618 41.6889L23.218 41.8609L23.343 41.8479L23.736 41.4259L24.2 41.1499H24.38L25.045 41.5599H25.1331L25.627 41.0919L25.945 40.8919L26.794 40.7709L27.1411 40.6199L27.584 40.2439L28.184 40.0099L29.184 39.0399L29.314 38.8559L29.431 38.4919L29.636 38.2449L29.8831 38.1989L30.314 38.3699L30.791 38.4449L31.402 38.0519L31.77 37.8889L32.07 37.4619L32.756 37.0479L33.256 37.0349L33.54 36.9349L33.695 36.7849L33.908 36.3629V36.2119L33.787 35.8229L33.85 35.5229L34.134 35.1799L34.147 34.8619L34.272 34.6399L34.155 34.1049L34.201 33.9129L34.36 33.7959L34.527 33.4029L34.757 33.1519L35.301 32.9349L35.7321 33.0349L35.648 32.8589L35.7111 32.4909L35.6981 31.7589L35.598 30.7849L35.322 30.2249L34.522 29.1249L34.242 26.0719L35.484 24.3529L35.768 23.5459L35.5681 23.1239L35.368 22.8899L35.0131 22.6559L34.507 22.0499L34.018 21.9999L33.809 21.7829L33.545 21.1679L33.3781 21.0549L32.83 20.8209L32.382 20.7459L31.976 20.7709L31.759 20.8879L31.416 20.9299L31.023 20.8299L30.5001 20.8679L30.2371 20.7129L30.17 20.5579L30.0991 20.0389L30.1331 19.2149L30.2501 18.9059L30.421 18.6629L30.952 18.4369L31.241 18.3869L31.7761 18.4329L32.47 17.7889L33.014 17.8099L33.3701 17.6429L34.001 17.0319L34.243 16.6559L34.369 16.5559L35.235 16.0829L35.4611 16.0159L36.155 15.5429L36.4351 14.9829L36.473 14.0589L36.5731 13.8589L36.832 13.6119L37.351 13.3779L38.259 12.7419L38.397 12.2359L38.8651 11.9009L39.02 11.7249L39.33 11.0849L39.769 10.6329L40.269 10.3949L40.541 10.3739L40.9091 10.5079H41.08L41.1511 10.4289L41.222 10.0859L41.314 10.0019L41.598 10.1939L42.033 10.3449H42.4011L42.5811 10.2819L42.9531 9.9059L43.079 9.6929L43.1461 8.9319L42.765 8.27089L42.907 7.8949L43.179 7.6189L43.229 7.31389L43.3 7.1929L43.551 7.0719H43.886L44.668 7.5069L45.007 7.5909H45.329L45.768 7.3739L46.307 6.91389L46.5911 6.78889L47.327 6.03189L47.666 5.9019L48.787 4.8309L49.239 4.6599L49.582 4.6469L50.113 4.7769L50.28 4.5179L50.5731 4.2919L50.761 4.2169L50.845 4.0999L50.887 3.4429L51.025 3.2549L51.038 3.2439ZM14.98 24.7529L14.829 24.9449L14.867 25.2209L14.704 25.1999L14.637 25.2459L14.5161 25.5299L14.4951 25.7299L14.553 25.8719L14.411 25.9719L14.2111 26.2859L14.449 26.5999L14.52 26.8299V27.2019L14.457 27.4319L14.057 27.9089L13.919 28.0089L13.6511 28.0469L13.5001 27.9469L13.32 27.5579L13.387 27.3869L13.087 27.2869L12.635 27.2489L12.183 27.6129L12.174 27.8129L11.936 27.8419L11.647 27.7829L11.576 27.6829L11.425 27.7829L11.358 27.7619L11.22 27.4109L11.02 27.3109L10.882 27.3859L10.761 27.2979L10.372 27.1979L10.334 27.0559L10.384 26.4449L10.4431 26.0809L10.631 25.5579L10.673 25.2069L11.173 24.6549H11.231L11.273 24.7299L11.704 24.8179L12.051 24.6629L12.16 24.5209L12.248 24.5129L12.9171 24.8639L13.156 24.8179L13.386 24.9309L13.537 24.6549L13.837 24.6839L14.13 24.3699L14.381 24.3239L14.54 24.0649L14.728 24.0189L14.7451 24.3189L14.958 24.5109L14.979 24.7619L14.98 24.7529Z" fill="#717171"/>
</svg>
