<svg width="47" height="39" viewBox="0 0 47 39" fill="none" xmlns="http://www.w3.org/2000/svg">
<path d="M40.055 35.475L39.528 34.275L39.31 33.961L39.022 33.708L38.896 33.369L38.829 32.211L38.637 31.901L38.528 31.47L38.018 30.617L37.98 30.107L38.047 29.613L38.018 28.785L37.955 28.585L37.855 27.393L37.955 26.715L37.863 26.548L37.65 26.46L37.575 26.16L37.583 25.892L37.462 25.553L37.153 25.16L36.538 24.834L36.3 24.788L36.112 24.679L35.987 24.445L36.066 24.052L35.911 23.613L35.711 23.249L35.201 22.944L34.415 22.116L33.943 21.974L33.32 21.552L32.471 20.544L32.271 20.419L31.74 20.365L31.464 20.265L31.264 20.123L31.093 19.964L30.976 19.564L30.817 19.264L30.462 18.996H30.262L29.718 19.234L28.978 19.175L28.669 19.083L27.996 18.707L27.26 18.586L27.043 18.603L26.843 18.733L26.5 19.348L26.525 20.456L26.337 20.791L26.22 21.448L26.04 21.829L25.894 21.992L25.694 22.13L25.255 22.197L25.192 22.256L24.492 22.335L24.354 22.293L23.802 22.314L23.718 22.26L23.601 22.302L23.308 22.235L22.008 21.616L21.117 20.683L20.975 20.62L20.134 20.695L19.582 20.043L17.529 19.951L17.353 20.039L16.918 20.01L16.006 20.144L14.927 20.094L14.227 20.224H12.583L10.592 20.349L10.224 20.328L9.13702 20.508L8.73703 20.483L8.43703 20.383L7.08203 19.572L5.86502 18.485L3.31003 16.741L1.90103 15.934L1.41603 15.499L1.17802 14.98L1.17003 14.691L1.23703 14.361L1.25403 13.111L1.37102 12.333L1.53003 11.994L2.42502 11.158L2.52502 10.903V10.414L2.41202 10.042L1.93903 9.19699L1.45802 8.55699L0.684021 7.34799L0.525024 6.72099L0.74202 6.202L0.976028 5.26099L1.07602 5.20299L1.20602 5.211L1.58203 5.411L2.00003 5.403L2.82802 5.70299L3.29202 5.92499L3.82703 6.364L4.32703 6.351L4.65303 6.614L4.99602 6.72699L5.10503 6.56H5.41002L5.51202 6.508L5.52502 6.32399L5.30803 6.03099L4.83502 5.659L4.35002 5.10699L3.82703 4.86899L3.13702 4.71399L2.55603 4.34999L2.23802 3.995L2.10802 3.69499L3.22502 1.508L4.02002 1.153L5.80202 0.571991L8.01003 1.03999L8.17302 1.23999L8.24002 1.48299L8.25702 2.58299L8.42802 3.60799L9.71602 5.862L9.87503 6.062L10.151 6.334L10.444 6.46399L12.606 8.48399L14.006 10.115L14.663 10.746L18.105 13.803L20.598 15.703L21.188 15.946L22.088 16.097L22.397 16.218L22.697 16.473L23.538 17.422L23.693 17.786L23.802 18.271L24.743 18.871H25.366L25.666 18.553L25.879 17.767L26.368 16.805L26.694 16.437L27.275 16.115L27.534 16.031H28.805L32.548 16.893L34.02 17.671L35.308 18.471L38.654 22.155L39.281 23.313L41.188 26.413L41.301 26.505L41.573 26.584L42.639 26.074L43.994 27.467L46.466 30.261L46.75 30.742L46.737 31.386L46.407 32.975L44.487 35.12L41.861 38.302L40.055 35.475Z" fill="#717171"/>
</svg>
